<svg xmlns="http://www.w3.org/2000/svg" width="15.06" height="15" viewBox="0 0 15.06 15">
  <metadata><?xpacket begin="﻿" id="W5M0MpCehiHzreSzNTczkc9d"?>
<x:xmpmeta xmlns:x="adobe:ns:meta/" x:xmptk="Adobe XMP Core 5.6-c142 79.160924, 2017/07/13-01:06:39        ">
   <rdf:RDF xmlns:rdf="http://www.w3.org/1999/02/22-rdf-syntax-ns#">
      <rdf:Description rdf:about=""/>
   </rdf:RDF>
</x:xmpmeta>
                                                                                                    
                                                                                                    
                                                                                                    
                                                                                                    
                                                                                                    
                                                                                                    
                                                                                                    
                                                                                                    
                                                                                                    
                                                                                                    
                                                                                                    
                                                                                                    
                                                                                                    
                                                                                                    
                                                                                                    
                                                                                                    
                                                                                                    
                                                                                                    
                                                                                                    
                                                                                                    
                           
<?xpacket end="w"?></metadata>
<defs>
    <style>
      .cls-1 {
        fill: #71888d;
        fill-rule: evenodd;
      }
    </style>
  </defs>
  <path id="svg-support-normal" class="cls-1" d="M2979.46,1082.13a3.621,3.621,0,0,1-1.06,2.24,3.569,3.569,0,0,1-1.67.95,3.633,3.633,0,0,1-1.88-.01l-3.17,3.17a3.633,3.633,0,0,1,.01,1.88,3.664,3.664,0,0,1-3.19,2.72,3.741,3.741,0,0,1-2.36-.56l2.79-2.79-1.13-1.14-2.78,2.78a3.7,3.7,0,0,1-.55-2.34,3.7,3.7,0,0,1,2.73-3.15,3.529,3.529,0,0,1,1.88,0l3.17-3.17a3.68,3.68,0,0,1,3.15-4.6,3.547,3.547,0,0,1,2.34.54l-2.78,2.78,1.13,1.12,2.81-2.78a3.6,3.6,0,0,1,.56,2.36h0Zm-9.46,9.17a2.6,2.6,0,0,0,.73-1.48,2.644,2.644,0,0,0-.26-1.61,2.785,2.785,0,0,0-.48-0.66,3.36,3.36,0,0,0-.65-0.49,2.793,2.793,0,0,0-1.61-.25,2.681,2.681,0,0,0-1.48.74,2.732,2.732,0,0,0-.77,1.91l1.6-1.58a1.038,1.038,0,0,1,.73-0.3,1.021,1.021,0,0,1,.73.3l1.15,1.13a1.07,1.07,0,0,1,.3.74,1.022,1.022,0,0,1-.3.72l-1.6,1.6a2.539,2.539,0,0,0,1.01-.18,2.752,2.752,0,0,0,.9-0.59h0Zm3.83-6.45a3.638,3.638,0,0,1-.63-0.5,3.38,3.38,0,0,1-.5-0.63l-2.6,2.61a3.638,3.638,0,0,1,.63.5,3.74,3.74,0,0,1,.5.63Zm4.42-2.12a2.754,2.754,0,0,0,.19-1.02l-1.6,1.6a1.038,1.038,0,0,1-1.46,0l-1.14-1.13a1.031,1.031,0,0,1-.31-0.73,1.067,1.067,0,0,1,.31-0.73l1.59-1.6a2.539,2.539,0,0,0-1.01.18,2.692,2.692,0,0,0-1.63,2.07,2.668,2.668,0,0,0,.26,1.61,2.949,2.949,0,0,0,.48.65,2.2,2.2,0,0,0,.67.47,2.576,2.576,0,0,0,1.59.27,2.741,2.741,0,0,0,1.49-.74,3.1,3.1,0,0,0,.57-0.9h0Zm0,0" transform="translate(-2964.44 -1078.09)"/>
</svg>
