<svg xmlns="http://www.w3.org/2000/svg" width="11" height="15" viewBox="0 0 11 15">
  <metadata><?xpacket begin="﻿" id="W5M0MpCehiHzreSzNTczkc9d"?>
<x:xmpmeta xmlns:x="adobe:ns:meta/" x:xmptk="Adobe XMP Core 5.6-c142 79.160924, 2017/07/13-01:06:39        ">
   <rdf:RDF xmlns:rdf="http://www.w3.org/1999/02/22-rdf-syntax-ns#">
      <rdf:Description rdf:about=""/>
   </rdf:RDF>
</x:xmpmeta>
                                                                                                    
                                                                                                    
                                                                                                    
                                                                                                    
                                                                                                    
                                                                                                    
                                                                                                    
                                                                                                    
                                                                                                    
                                                                                                    
                                                                                                    
                                                                                                    
                                                                                                    
                                                                                                    
                                                                                                    
                                                                                                    
                                                                                                    
                                                                                                    
                                                                                                    
                                                                                                    
                           
<?xpacket end="w"?></metadata>
<defs>
    <style>
      .cls-1 {
        fill: #4687b5;
        fill-rule: evenodd;
      }
    </style>
  </defs>
  <path id="svg-contrast" class="cls-1" d="M2666.12,1537.45v1.28h2.45v1.25h-3c-0.02,0-.04.01-0.06,0.01s-0.04-.01-0.06-0.01l-3,.01v-1.25h2.44v-1.29a5.59,5.59,0,0,1-4.89-5.59h1.21a4.327,4.327,0,0,0,4.24,4.36h0.11a4.316,4.316,0,0,0,4.22-4.36h1.23a5.582,5.582,0,0,1-4.89,5.59h0Zm-0.61-2.47a3.034,3.034,0,0,1-2.17-.91,3.176,3.176,0,0,1-.89-2.21h0v-3.74a3.06,3.06,0,1,1,6.12-.03v0.02l0.01,3.75a0.5,0.5,0,0,1-.02.12,3.078,3.078,0,0,1-3.05,3h0Zm1.84-3.12v-3.74h-0.01a1.835,1.835,0,1,0-3.67,0h0l0.01,3.74v0.02a1.83,1.83,0,1,0,3.66-.02h0.01Zm-1.86-.62h0Zm0,0" transform="translate(-2660 -1525)"/>
</svg>
