<svg xmlns="http://www.w3.org/2000/svg" width="15" height="15" viewBox="0 0 15 15">
  <metadata><?xpacket begin="﻿" id="W5M0MpCehiHzreSzNTczkc9d"?>
<x:xmpmeta xmlns:x="adobe:ns:meta/" x:xmptk="Adobe XMP Core 5.6-c142 79.160924, 2017/07/13-01:06:39        ">
   <rdf:RDF xmlns:rdf="http://www.w3.org/1999/02/22-rdf-syntax-ns#">
      <rdf:Description rdf:about=""/>
   </rdf:RDF>
</x:xmpmeta>
                                                                                                    
                                                                                                    
                                                                                                    
                                                                                                    
                                                                                                    
                                                                                                    
                                                                                                    
                                                                                                    
                                                                                                    
                                                                                                    
                                                                                                    
                                                                                                    
                                                                                                    
                                                                                                    
                                                                                                    
                                                                                                    
                                                                                                    
                                                                                                    
                                                                                                    
                                                                                                    
                           
<?xpacket end="w"?></metadata>
<defs>
    <style>
      .cls-1 {
        fill: #cf232c;
        fill-rule: evenodd;
      }
    </style>
  </defs>
  <path id="svg-apps-red" class="cls-1" d="M2735,1083.74a1.76,1.76,0,1,1-1.76,1.76,1.763,1.763,0,0,1,1.76-1.76m0-1.13a2.885,2.885,0,1,0,2.88,2.89,2.883,2.883,0,0,0-2.88-2.89h0Zm6.35,1.16a1.15,1.15,0,0,1,1.15,1.15v1.15a1.159,1.159,0,0,1-1.15,1.16h-0.25a6.222,6.222,0,0,1-.57,1.36l0.17,0.17a1.133,1.133,0,0,1,.34.82,1.167,1.167,0,0,1-.34.82l-0.8.81a1.159,1.159,0,0,1-1.64,0l-0.17-.17a6.518,6.518,0,0,1-1.36.57v0.23a1.159,1.159,0,0,1-1.15,1.16h-1.16a1.159,1.159,0,0,1-1.15-1.16v-0.24a6.055,6.055,0,0,1-1.36-.58l-0.17.18a1.159,1.159,0,0,1-1.64,0l-0.81-.8a1.167,1.167,0,0,1-.34-0.82,1.133,1.133,0,0,1,.34-0.82l0.17-.17a6.787,6.787,0,0,1-.58-1.36h-0.23a1.159,1.159,0,0,1-1.15-1.16v-1.15a1.15,1.15,0,0,1,1.15-1.15h0.25a6.024,6.024,0,0,1,.57-1.36l-0.17-.17a1.159,1.159,0,0,1,0-1.64l0.8-.81a1.159,1.159,0,0,1,1.64,0l0.17,0.17a6.055,6.055,0,0,1,1.36-.58v-0.23a1.157,1.157,0,0,1,1.15-1.15h1.16a1.157,1.157,0,0,1,1.15,1.15v0.24a6.55,6.55,0,0,1,1.36.58l0.17-.17a1.159,1.159,0,0,1,1.64,0l0.81,0.8a1.159,1.159,0,0,1,0,1.64l-0.17.17a5.838,5.838,0,0,1,.57,1.36h0.24Zm-0.7,1.15a0.561,0.561,0,0,1-.57-0.46,5.232,5.232,0,0,0-.75-1.85,0.575,0.575,0,0,1,.07-0.72l0.49-.49-0.81-.79-0.49.49a0.587,0.587,0,0,1-.71.07,5.13,5.13,0,0,0-1.84-.76,0.58,0.58,0,0,1-.46-0.58v-0.68h-1.16v0.69a0.572,0.572,0,0,1-.46.58,5.111,5.111,0,0,0-1.84.75,0.588,0.588,0,0,1-.73-0.07l-0.49-.49-0.79.81,0.49,0.49a0.574,0.574,0,0,1,.07.7,5.177,5.177,0,0,0-.76,1.85,0.569,0.569,0,0,1-.57.46h-0.69v1.15h0.7a0.578,0.578,0,0,1,.57.47,5.184,5.184,0,0,0,.75,1.84,0.589,0.589,0,0,1-.07.73l-0.49.49,0.81,0.81,0.49-.49a0.59,0.59,0,0,1,.71-0.09,5.218,5.218,0,0,0,1.82.76,0.561,0.561,0,0,1,.46.57v0.68h1.15v-0.69a0.59,0.59,0,0,1,.46-0.58,4.991,4.991,0,0,0,1.87-.74,0.588,0.588,0,0,1,.73.07l0.49,0.49,0.81-.81-0.49-.49a0.6,0.6,0,0,1-.09-0.71,5.218,5.218,0,0,0,.76-1.82,0.569,0.569,0,0,1,.57-0.46h0.69v-1.18h-0.7Zm0,0" transform="translate(-2727.5 -1078)"/>
</svg>
