<svg xmlns="http://www.w3.org/2000/svg" width="15" height="15" viewBox="0 0 15 15">
  <metadata><?xpacket begin="﻿" id="W5M0MpCehiHzreSzNTczkc9d"?>
<x:xmpmeta xmlns:x="adobe:ns:meta/" x:xmptk="Adobe XMP Core 5.6-c142 79.160924, 2017/07/13-01:06:39        ">
   <rdf:RDF xmlns:rdf="http://www.w3.org/1999/02/22-rdf-syntax-ns#">
      <rdf:Description rdf:about=""/>
   </rdf:RDF>
</x:xmpmeta>
                                                                                                    
                                                                                                    
                                                                                                    
                                                                                                    
                                                                                                    
                                                                                                    
                                                                                                    
                                                                                                    
                                                                                                    
                                                                                                    
                                                                                                    
                                                                                                    
                                                                                                    
                                                                                                    
                                                                                                    
                                                                                                    
                                                                                                    
                                                                                                    
                                                                                                    
                                                                                                    
                           
<?xpacket end="w"?></metadata>
<defs>
    <style>
      .cls-1 {
        fill: #71888d;
        fill-rule: evenodd;
      }
    </style>
  </defs>
  <path id="svg-dashboard-normal" class="cls-1" d="M2548,1078h9v5h-9v-5Zm1,1h7v3h-7v-3Zm-1,5h9v3h-9v-3Zm1,1h7v1h-7v-1Zm-1,3h4v5h-4v-5Zm1,1h2v3h-2v-3Zm4-1h4v5h-4v-5Zm1,1h2v3h-2v-3Zm4-11h5v3h-5v-3Zm1,1h3v1h-3v-1Zm-1,3h5v3h-5v-3Zm1,1h3v1h-3v-1Zm-1,3h5v3h-5v-3Zm1,1h3v1h-3v-1Zm-1,3h5v3h-5v-3Zm1,1h3v1h-3v-1Z" transform="translate(-2548 -1078)"/>
</svg>
