<svg xmlns="http://www.w3.org/2000/svg" width="16" height="13" viewBox="0 0 16 13">
  <metadata><?xpacket begin="﻿" id="W5M0MpCehiHzreSzNTczkc9d"?>
<x:xmpmeta xmlns:x="adobe:ns:meta/" x:xmptk="Adobe XMP Core 5.6-c142 79.160924, 2017/07/13-01:06:39        ">
   <rdf:RDF xmlns:rdf="http://www.w3.org/1999/02/22-rdf-syntax-ns#">
      <rdf:Description rdf:about=""/>
   </rdf:RDF>
</x:xmpmeta>
                                                                                                    
                                                                                                    
                                                                                                    
                                                                                                    
                                                                                                    
                                                                                                    
                                                                                                    
                                                                                                    
                                                                                                    
                                                                                                    
                                                                                                    
                                                                                                    
                                                                                                    
                                                                                                    
                                                                                                    
                                                                                                    
                                                                                                    
                                                                                                    
                                                                                                    
                                                                                                    
                           
<?xpacket end="w"?></metadata>
<defs>
    <style>
      .cls-1 {
        fill: #4687b5;
        fill-rule: evenodd;
      }
    </style>
  </defs>
  <path id="svg-camera" class="cls-1" d="M2666.01,1584.49a3.5,3.5,0,1,0,3.5,3.5A3.5,3.5,0,0,0,2666.01,1584.49Zm0,6.01a2.505,2.505,0,1,1,2.51-2.51A2.5,2.5,0,0,1,2666.01,1590.5Zm6.5-7.51h-1.99c-0.47,0-1.48-2-2.01-2h-5.01c-0.53,0-1.54,2-2.01,2h-1.98a1.5,1.5,0,0,0-1.5,1.5v8a1.5,1.5,0,0,0,1.5,1.5h13a1.5,1.5,0,0,0,1.5-1.5v-8A1.5,1.5,0,0,0,2672.51,1582.99Zm0.5,9a1,1,0,0,1-1,1h-12a1,1,0,0,1-1-1v-7a1,1,0,0,1,1-1H2662c0.46,0,1.47-2,2-2h3.99c0.52,0,1.53,2,1.99,2h2.03a1,1,0,0,1,1,1v7Z" transform="translate(-2658 -1581)"/>
</svg>
