<svg xmlns="http://www.w3.org/2000/svg" width="110" height="22" viewBox="0 0 110 22">
  <metadata><?xpacket begin="﻿" id="W5M0MpCehiHzreSzNTczkc9d"?>
<x:xmpmeta xmlns:x="adobe:ns:meta/" x:xmptk="Adobe XMP Core 5.6-c142 79.160924, 2017/07/13-01:06:39        ">
   <rdf:RDF xmlns:rdf="http://www.w3.org/1999/02/22-rdf-syntax-ns#">
      <rdf:Description rdf:about=""/>
   </rdf:RDF>
</x:xmpmeta>
                                                                                                    
                                                                                                    
                                                                                                    
                                                                                                    
                                                                                                    
                                                                                                    
                                                                                                    
                                                                                                    
                                                                                                    
                                                                                                    
                                                                                                    
                                                                                                    
                                                                                                    
                                                                                                    
                                                                                                    
                                                                                                    
                                                                                                    
                                                                                                    
                                                                                                    
                                                                                                    
                           
<?xpacket end="w"?></metadata>
<defs>
    <style>
      .cls-1 {
        fill: #cf232c;
        fill-rule: evenodd;
      }
    </style>
  </defs>
  <path id="logo-red" class="cls-1" d="M2113.1,1076.73a6.813,6.813,0,0,0-5.38,2.68v-2.4h-4.53v16.71h4.53v-9.51a3.558,3.558,0,0,1,3.74-3.53,3.651,3.651,0,0,1,3.81,3.53v9.51h4.54v-10.36a6.4,6.4,0,0,0-6.71-6.63m38.92,0.29-4.1,11.37-4.1-11.37h-5.17l6.79,16.69h4.96l6.79-16.69h-5.17Zm-53.65,11.56a6.847,6.847,0,0,1-4.74,1.77,4.986,4.986,0,0,1-3.65-1.35l11.58-4.87a9.117,9.117,0,0,0-1.97-4.66,8.251,8.251,0,0,0-6.52-2.74,8.513,8.513,0,0,0-8.75,8.64c0,5.04,3.77,8.63,9.24,8.63a10.779,10.779,0,0,0,7.67-3.18Zm-8.71-6.53a4.192,4.192,0,0,1,3.48-1.67,3.8,3.8,0,0,1,3.52,2.34l-7.92,3.32a5.448,5.448,0,0,1,.92-3.99m-5.77,7.46h-10.3v-17.49H2069v21.7h14.89v-4.21Zm81.44,4.49a8.638,8.638,0,1,1,8.9-8.63,8.617,8.617,0,0,1-8.9,8.63m0-13.34a4.378,4.378,0,0,0-4.37,4.71,4.528,4.528,0,0,0,4.43,4.7,4.4,4.4,0,0,0,4.37-4.7,4.531,4.531,0,0,0-4.43-4.71M2130.44,1094a8.638,8.638,0,1,1,8.9-8.63,8.611,8.611,0,0,1-8.9,8.63m0-13.34a4.378,4.378,0,0,0-4.37,4.71,4.528,4.528,0,0,0,4.43,4.7,4.4,4.4,0,0,0,4.37-4.7,4.531,4.531,0,0,0-4.43-4.71m43.79,10.67v0.41l0.74,0.01v1.97h0.4v-1.97l0.72-.01v-0.41h-1.86Zm2.43,0v2.37h0.39v-1.65l0.78,1.16,0.75-1.15v1.64h0.41v-2.37h-0.46l-0.7,1.1-0.7-1.1h-0.47Z" transform="translate(-2069 -1072)"/>
</svg>
