<svg xmlns="http://www.w3.org/2000/svg" width="13" height="15" viewBox="0 0 13 15">
  <metadata><?xpacket begin="﻿" id="W5M0MpCehiHzreSzNTczkc9d"?>
<x:xmpmeta xmlns:x="adobe:ns:meta/" x:xmptk="Adobe XMP Core 5.6-c142 79.160924, 2017/07/13-01:06:39        ">
   <rdf:RDF xmlns:rdf="http://www.w3.org/1999/02/22-rdf-syntax-ns#">
      <rdf:Description rdf:about=""/>
   </rdf:RDF>
</x:xmpmeta>
                                                                                                    
                                                                                                    
                                                                                                    
                                                                                                    
                                                                                                    
                                                                                                    
                                                                                                    
                                                                                                    
                                                                                                    
                                                                                                    
                                                                                                    
                                                                                                    
                                                                                                    
                                                                                                    
                                                                                                    
                                                                                                    
                                                                                                    
                                                                                                    
                                                                                                    
                                                                                                    
                           
<?xpacket end="w"?></metadata>
<defs>
    <style>
      .cls-1 {
        fill: #71888d;
        fill-rule: evenodd;
      }
    </style>
  </defs>
  <path id="svg-account-normal" class="cls-1" d="M2889.15,1086.08a6.757,6.757,0,0,1,3.84,6.04c0,0.02.01,0.04,0.01,0.07l0.01,0.07a0.72,0.72,0,1,1-1.44,0l-0.01-.07c0-.01.01-0.01,0.01-0.02a5.158,5.158,0,0,0-4.85-5.16c-0.07,0-.13.02-0.21,0.02s-0.13-.02-0.21-0.02a5.162,5.162,0,0,0-4.85,5.24h-0.01v0.01a0.725,0.725,0,1,1-1.45,0l-0.01-.07a0.8,0.8,0,0,1,.03-0.15,6.734,6.734,0,0,1,3.85-5.96,4.5,4.5,0,0,1-2.03-3.36,4.882,4.882,0,0,1,4.67-4.71,4.434,4.434,0,0,1,4.35,4.51,4.558,4.558,0,0,1-1.7,3.56h0Zm-2.65-6.58a3,3,0,1,0,2.89,3,2.942,2.942,0,0,0-2.89-3h0Zm0,0" transform="translate(-2880 -1078)"/>
</svg>
