<svg xmlns="http://www.w3.org/2000/svg" width="56" height="56" viewBox="0 0 56 56">
  <metadata><?xpacket begin="﻿" id="W5M0MpCehiHzreSzNTczkc9d"?>
<x:xmpmeta xmlns:x="adobe:ns:meta/" x:xmptk="Adobe XMP Core 5.6-c142 79.160924, 2017/07/13-01:06:39        ">
   <rdf:RDF xmlns:rdf="http://www.w3.org/1999/02/22-rdf-syntax-ns#">
      <rdf:Description rdf:about=""/>
   </rdf:RDF>
</x:xmpmeta>
                                                                                                    
                                                                                                    
                                                                                                    
                                                                                                    
                                                                                                    
                                                                                                    
                                                                                                    
                                                                                                    
                                                                                                    
                                                                                                    
                                                                                                    
                                                                                                    
                                                                                                    
                                                                                                    
                                                                                                    
                                                                                                    
                                                                                                    
                                                                                                    
                                                                                                    
                                                                                                    
                           
<?xpacket end="w"?></metadata>
<defs>
    <style>
      .cls-1 {
        fill: #38b066;
        fill-rule: evenodd;
      }
    </style>
  </defs>
  <path id="svg-boot-all" class="cls-1" d="M2968,1396a28,28,0,1,1-28,28A28.005,28.005,0,0,1,2968,1396Zm0,3a25,25,0,1,1-25,25A25,25,0,0,1,2968,1399Zm0,25,15,28h-30Zm-12.5,22a1.5,1.5,0,1,1-1.5,1.5A1.5,1.5,0,0,1,2955.5,1446Zm25,0a1.5,1.5,0,1,1-1.5,1.5A1.5,1.5,0,0,1,2980.5,1446Zm-39-23h4a1.5,1.5,0,0,1,0,3h-4A1.5,1.5,0,0,1,2941.5,1423Zm49,0h4a1.5,1.5,0,0,1,0,3h-4A1.5,1.5,0,0,1,2990.5,1423Zm-44.7-13.05,3.46,2a1.5,1.5,0,1,1-1.5,2.6l-3.46-2A1.5,1.5,0,1,1,2945.8,1409.95Zm42.44,24.5,3.46,2a1.5,1.5,0,0,1-1.5,2.6l-3.46-2A1.5,1.5,0,0,1,2988.24,1434.45Zm-32.19-33.65,2,3.46a1.5,1.5,0,0,1-2.6,1.5l-2-3.46A1.5,1.5,0,1,1,2956.05,1400.8Zm13.45-2.8v4a1.5,1.5,0,0,1-3,0v-4A1.5,1.5,0,0,1,2969.5,1398Zm13.05,4.3-2,3.46a1.5,1.5,0,1,1-2.6-1.5l2-3.46A1.5,1.5,0,0,1,2982.55,1402.3Zm9.15,10.25-3.46,2a1.5,1.5,0,0,1-1.5-2.6l3.46-2A1.5,1.5,0,0,1,2991.7,1412.55Zm-42.44,24.5-3.46,2a1.5,1.5,0,1,1-1.5-2.6l3.46-2A1.5,1.5,0,1,1,2949.26,1437.05Zm22.18-14.04a4,4,0,1,1-5.46-1.46A4,4,0,0,1,2971.44,1423.01Zm8.66-5a2,2,0,0,1-.73,2.74l-8.66,5a2,2,0,0,1-2-3.47l8.66-5A2,2,0,0,1,2980.1,1418.01Z" transform="translate(-2940 -1396)"/>
</svg>
