<svg xmlns="http://www.w3.org/2000/svg" width="11" height="15" viewBox="0 0 11 15">
  <metadata><?xpacket begin="﻿" id="W5M0MpCehiHzreSzNTczkc9d"?>
<x:xmpmeta xmlns:x="adobe:ns:meta/" x:xmptk="Adobe XMP Core 5.6-c142 79.160924, 2017/07/13-01:06:39        ">
   <rdf:RDF xmlns:rdf="http://www.w3.org/1999/02/22-rdf-syntax-ns#">
      <rdf:Description rdf:about=""/>
   </rdf:RDF>
</x:xmpmeta>
                                                                                                    
                                                                                                    
                                                                                                    
                                                                                                    
                                                                                                    
                                                                                                    
                                                                                                    
                                                                                                    
                                                                                                    
                                                                                                    
                                                                                                    
                                                                                                    
                                                                                                    
                                                                                                    
                                                                                                    
                                                                                                    
                                                                                                    
                                                                                                    
                                                                                                    
                                                                                                    
                           
<?xpacket end="w"?></metadata>
<defs>
    <style>
      .cls-1 {
        fill: #cf232c;
        fill-rule: evenodd;
      }
    </style>
  </defs>
  <path id="svg-security-red" class="cls-1" d="M2808.57,1081.65a6.033,6.033,0,0,0-1.18-1.89,5.413,5.413,0,0,0-1.75-1.29,5.082,5.082,0,0,0-4.28,0,5.678,5.678,0,0,0-1.75,1.29,6.27,6.27,0,0,0-1.18,1.89,6.578,6.578,0,0,0-.43,2.32v7.87a1.12,1.12,0,0,0,1.08,1.16h8.84a1.12,1.12,0,0,0,1.08-1.16v-7.87a6.362,6.362,0,0,0-.43-2.32h0Zm-6.78-2.12h0.01l0.02-.01a3.928,3.928,0,0,1,1.68-.38,4.151,4.151,0,0,1,1.69.37,4.535,4.535,0,0,1,1.39,1.03,4.927,4.927,0,0,1,.96,1.54,5.239,5.239,0,0,1,.35,1.89v0.5h-8.78v-0.5a5.279,5.279,0,0,1,.35-1.89,4.927,4.927,0,0,1,.96-1.54,4.35,4.35,0,0,1,1.37-1.01h0Zm6.11,6.08v6.22a0.037,0.037,0,0,1-.01.03h-8.78v-6.25h8.79Zm-4.91,2.56v1.5a0.515,0.515,0,1,0,1.03,0v-1.5a0.955,0.955,0,1,0-1.03,0h0Zm0,0" transform="translate(-2798 -1078)"/>
</svg>
